<svg fill="#FFFFFF" xmlns="http://www.w3.org/2000/svg"  viewBox="0 0 72 72" width="30px" height="30px" baseProfile="basic"><path d="M56,48c2.209,0,4,1.791,4,4c0,2.209-1.791,4-4,4c-1.202,0-38.798,0-40,0c-2.209,0-4-1.791-4-4c0-2.209,1.791-4,4-4	C17.202,48,54.798,48,56,48z"/><path d="M56,32c2.209,0,4,1.791,4,4c0,2.209-1.791,4-4,4c-1.202,0-38.798,0-40,0c-2.209,0-4-1.791-4-4c0-2.209,1.791-4,4-4	C17.202,32,54.798,32,56,32z"/><path d="M56,16c2.209,0,4,1.791,4,4c0,2.209-1.791,4-4,4c-1.202,0-38.798,0-40,0c-2.209,0-4-1.791-4-4c0-2.209,1.791-4,4-4	C17.202,16,54.798,16,56,16z"/></svg>